<?xml version="1.0" encoding="utf-8"?>
<!-- Generator: Adobe Illustrator 26.0.3, SVG Export Plug-In . SVG Version: 6.00 Build 0)  -->
<svg version="1.1" id="Layer_1" xmlns="http://www.w3.org/2000/svg" xmlns:xlink="http://www.w3.org/1999/xlink" x="0px" y="0px"
     viewBox="0 0 202.67 82.78" enable-background="new 0 0 202.67 82.78" xml:space="preserve">
<g>
	<g>
		<polygon points="82.66,15.72 78.89,15.72 78.92,24.93 75.71,24.93 75.74,15.72 71.97,15.72 71.97,38.49 75.74,38.49 75.71,28.32
			78.92,28.32 78.89,38.49 82.66,38.49 		"/>
        <rect x="86.62" y="15.72" width="3.77" height="22.77"/>
        <path d="M99.31,15.33c-1.54,0-2.81,0.44-3.68,1.29c-1,0.99-1.67,2.61-1.67,7.28v6.41c0,4.07,0.47,6.11,1.67,7.28
			c0.84,0.81,2,1.25,3.26,1.25c1.51,0,2.48-0.61,3.34-2.1l0.04-0.06h0.15l0.06,0.07l0.77,1.73h1.56V26.66h-5.25v3.35h1.64v0.6
			c0,2.57,0,4.79-1.83,4.79c-1.67,0-1.67-1.89-1.67-4.27v-8.08c0-2.39,0-4.27,1.63-4.27c1.54,0,1.54,1.61,1.54,4.54v0.04l3.81,0
			c0-3.58-0.52-5.59-1.73-6.74C102.06,15.76,100.84,15.33,99.31,15.33z"/>
        <polygon points="119.17,15.72 115.4,15.72 115.43,24.93 112.22,24.93 112.25,15.72 108.48,15.72 108.48,38.49 112.25,38.49
			112.22,28.32 115.43,28.32 115.4,38.49 119.17,38.49 		"/>
        <path fill="#DD0000" d="M132.8,38.89c3.42,0,5.54-2.24,5.54-5.83c0-2.48-0.98-4.57-3.08-6.58l-1.84-1.77
			c-1.33-1.26-2.2-2.2-2.2-3.73c0-1.37,0.59-2.19,1.57-2.19c1.32,0,1.66,1.56,1.78,2.79l3.52-0.3c-0.42-3.89-2.24-5.94-5.27-5.94
			c-3.2,0-5.35,2.37-5.35,5.9c0,2.39,0.94,4.4,2.95,6.32l1.84,1.77c1.58,1.5,2.23,2.64,2.23,3.92c0,1.39-0.65,2.22-1.73,2.22
			c-1.19,0-1.85-1.03-2.14-3.34l-3.49,0.34C127.49,36.61,129.49,38.89,132.8,38.89z"/>
        <polygon fill="#DD0000" points="150.34,18.98 150.34,15.72 140,15.72 140,18.98 143.32,18.98 143.29,38.49 147.06,38.49
			147.03,18.98 		"/>
        <path fill="#DD0000" d="M158.79,33.76l0.58,4.73h3.67l-3.37-22.77h-5.22l-3.41,22.77h3.7l0.58-4.73H158.79z M156.9,20.39h0.35
			l1.12,10.04h-2.66L156.9,20.39z"/>
        <polygon fill="#DD0000" points="170.71,28.51 173.2,38.49 177.16,38.49 173.46,24.22 173.47,24.18 176.95,15.71 172.95,15.71
			169.71,24.6 169.45,24.6 169.45,15.72 165.68,15.72 165.68,38.49 169.45,38.49 169.45,31.38 		"/>
        <polygon fill="#DD0000" points="187.5,28.28 187.5,24.96 183.51,24.96 183.51,18.98 188.5,18.98 188.5,15.72 179.77,15.72
			179.77,38.49 188.6,38.49 188.6,35.26 183.51,35.26 183.51,28.28 		"/>
        <path fill="#DD0000" d="M196.52,38.89c3.42,0,5.55-2.24,5.55-5.83c0-2.48-0.98-4.57-3.08-6.58l-1.84-1.77
			c-1.33-1.26-2.2-2.2-2.2-3.73c0-1.37,0.59-2.19,1.57-2.19c1.32,0,1.66,1.56,1.78,2.79l3.52-0.3c-0.42-3.89-2.24-5.94-5.27-5.94
			c-3.2,0-5.35,2.37-5.35,5.9c0,2.39,0.94,4.4,2.95,6.32l1.84,1.77c1.58,1.5,2.23,2.64,2.23,3.92c0,1.39-0.65,2.22-1.73,2.22
			c-1.19,0-1.85-1.03-2.14-3.34l-3.49,0.34C191.21,36.61,193.21,38.89,196.52,38.89z"/>
	</g>
    <g>
		<path d="M76.7,67.45c3.4,0,5.5-2.22,5.5-5.79c0-2.46-0.97-4.54-3.06-6.53l-1.82-1.76c-1.32-1.27-2.18-2.21-2.18-3.71
			c0-1.36,0.58-2.17,1.57-2.17c1.31,0,1.65,1.54,1.77,2.77l3.49-0.3c-0.42-3.86-2.23-5.9-5.24-5.9c-3.23,0-5.32,2.3-5.32,5.85
			c0,2.36,0.93,4.36,2.94,6.28l1.82,1.76c1.58,1.51,2.22,2.64,2.22,3.9c0,1.38-0.64,2.21-1.72,2.21c-1.19,0-1.85-1.02-2.13-3.32
			l-3.47,0.34C71.42,65.18,73.41,67.45,76.7,67.45z"/>
        <polygon points="96.59,44.43 95.26,58.74 94.9,58.74 93.17,44.43 90.03,44.43 88.33,58.74 87.97,58.74 86.63,44.43 83.08,44.43
			85.92,67.07 89.67,67.07 91.39,53.41 91.75,53.41 93.48,67.07 97.23,67.07 100.08,44.43 		"/>
        <rect x="101.81" y="44.43" width="3.75" height="22.65"/>
        <polygon points="114.33,47.68 117.59,47.68 117.59,44.43 107.31,44.43 107.31,47.67 110.58,47.67 110.58,67.06 114.33,67.06 		"/>
        <polygon points="118.51,63.88 118.51,67.06 128.47,67.06 128.47,63.86 122.53,63.86 128.5,47.65 128.5,44.43 119.12,44.43
			119.12,47.67 124.52,47.67 		"/>
        <polygon points="138.31,56.92 138.31,53.62 134.34,53.62 134.34,47.67 139.3,47.67 139.3,44.43 130.62,44.43 130.62,67.07
			139.39,67.07 139.39,63.86 134.33,63.86 134.33,56.92 		"/>
        <path d="M148.48,67.06h3.93L149.9,56.6l0.07-0.05c1.39-1.04,2.06-2.81,2.06-5.4v-0.06c0-4.54-1.8-6.65-5.67-6.65l-4.86-0.02v22.65
			h3.75v-9.39h1.19L148.48,67.06z M145.24,54.58V47.6h0.78c2.03,0,2.27,1.97,2.27,3.46v0.1c0,1.69-0.28,3.42-2.33,3.42H145.24z"/>
        <polygon points="158.01,44.42 154.26,44.42 154.26,67.06 162.49,67.06 162.49,63.85 158.01,63.85 		"/>
        <path d="M170.88,62.36l0.58,4.7h3.65l-3.35-22.64h-5.19l-3.38,22.64h3.68l0.57-4.7H170.88z M167.82,59.06l1.18-9.97h0.35
			l1.12,9.97H167.82z"/>
        <polygon points="184.94,67.07 188.24,67.07 188.24,44.42 184.62,44.42 184.62,56.75 184.43,56.75 180.57,44.42 176.71,44.42
			176.71,67.07 180.33,67.07 180.33,53.44 180.52,53.44 		"/>
        <path d="M191.15,67.06h5.44c1.48,0,2.67-0.44,3.53-1.3c1-1,1.62-2.41,1.62-6.31v-7.39c0-3.9-0.62-5.31-1.62-6.31
			c-0.87-0.86-2.06-1.3-3.53-1.32h-5.44V67.06z M194.87,47.61h1.09c2.04,0,2.04,2.41,2.04,3.71v8.87c0,1.29,0,3.71-2.04,3.71h-1.09
			V47.61z"/>
	</g>
</g>
    <path fill="#DD0000" d="M53.99,26.2c-0.09-1.94-2.31-3.45-3.34-5.01c-1.06-1.53-1.43-3.76-2.82-4.85c-0.22-1-0.51-1.94-0.85-2.85
	c-1.09,0.38-2.34,0.4-3.43,0.06c1-0.32,2-0.82,2.89-1.32c-0.71-1.51-1.6-2.88-2.63-4.11l0,0l0,0c-0.91,0.7-2.09,1.1-3.24,1.07
	c0.86-0.58,1.65-1.32,2.36-2.04c-1.32-1.38-2.86-2.52-4.49-3.49l0,0l0,0c-0.63,0.9-1.66,1.57-2.73,1.83
	c0.62-0.71,1.19-1.59,1.64-2.41c-1.67-0.84-3.45-1.46-5.28-1.87l0,0l0,0c-0.37,1.03-1.23,1.91-2.2,2.39
	c0.45-0.8,0.78-1.74,1.05-2.61l0,0l0,0C28.98,0.67,27,0.58,25.04,0.74c-0.2,0.98-0.88,1.95-1.68,2.49c0.27-0.74,0.44-1.59,0.56-2.37
	l0,0C22.24,1.1,20.59,1.5,19,2.1l0,0l0,0c0.02,0.9-0.35,1.87-0.9,2.53c0.05-0.69,0-1.44-0.08-2.13c-3.49,1.51-6.68,4.16-8.8,7.47
	c9.57-8.45,26.56-5.18,32.4,6.07c-0.35,0.24-0.73,0.61-0.98,0.91c0.12,0.12,0.3,0.24,0.4,0.36l0,0c0.62,0.62,0.98,1.24,1.06,1.76
	l-1.73-0.92l0,0c-0.62-0.33-3.34-1.78-3.91-2.08l0,0l0,0c-0.2,1.7,0.9,3.43,2.53,3.96c-2.36,3.42-3.88,6.55-5.26,10.95
	c0,0,0-0.01-0.01-0.01c-2.24,6.98-8.07,9.75-13.97,12.73c-5.6,2.97-12.06,6.39-17.78,9.42c1.83,2,4.99,2.64,7.46,1.52
	C9.19,66.19-1.4,67.64,1.1,71.65l0,0c1.49,2.57,2.72,5.26,3.68,8.07c0.88,0.67,1.64,1.48,2.27,2.39l0,0c0.97-0.28,3.6-1.04,4.6-1.33
	c-2.23-4.04-3.28,1.54-6.13-9.27c-0.05,0.03-0.09,0.07-0.14,0.11c0.04-0.07,0.07-0.13,0.11-0.2c0.01,0.03,0.02,0.06,0.03,0.09
	c3.58-3.05,8.72-3.01,12.3-6.06c0.3,0.79-0.33,2.5,0.35,3.15l0,0c2.12,2.03,4.03,4.25,5.72,6.66c0.8,0.32,1.57,0.73,2.27,1.24
	l4.97-1.44c-2.74-3.74-2.85,2.2-8.76-7.77c-0.61-1.24-0.2-3.89,0.55-6.53c6.22-0.7,11.61-3,16.76-6.31
	c-0.01,5.09-0.42,9.67-2.03,14.42c0.8,1.17,1.77,2.35,2.19,3.75l3.88-1.12l0,0l0,0c0-1.27-1.38-1.54-2.09-2.21
	c-0.2-0.23-0.32-0.54-0.28-1.01c0.1-3.34,0.67-6.7,1.56-9.93c0,0,0,0,0-0.01c2.17-8.26,6.85-12.77,4.84-23
	c-0.51-2.21-1.25-3.85-0.96-6.1c-0.92-0.7-3.44-1.69-4.27-2.98c0.94,0.83,5.24,1.77,5.31,1.8c-0.17,1.57,0.63,3.26,1.98,3.96l0,0
	l0,0c-0.45-1.07-0.17-2.8,0.77-3.54C51.99,29.13,53.8,27.69,53.99,26.2z M46.4,21.21c-0.46-0.02-0.87-0.82-1.14-1.12l0.69,0.05
	c0.32,0.04,0.92-0.01,1.16,0.24c0.28,0.19,0.32,0.71,0.4,1.01L46.4,21.21z"/>
</svg>
