<svg width="50" height="50" viewBox="0 0 50 50" fill="none" xmlns="http://www.w3.org/2000/svg">
<path d="M6.016 36V15.392H9.088L19.84 30.56V15.392H23.296V36H20.224L9.504 20.864V36H6.016ZM36.9598 36.32C33.6318 36.32 31.0931 35.424 29.3438 33.632C27.5944 31.8187 26.7198 29.312 26.7198 26.112C26.7198 22.6347 27.5838 19.9253 29.3118 17.984C31.0398 16.0427 33.6211 15.072 37.0558 15.072C39.3384 15.072 41.3758 15.3813 43.1678 16V19.008C41.4184 18.368 39.4771 18.048 37.3438 18.048C34.8051 18.048 32.9811 18.72 31.8718 20.064C30.7838 21.3867 30.2398 23.4027 30.2398 26.112C30.2398 30.9547 32.5118 33.376 37.0558 33.376C38.8904 33.376 40.3731 33.1627 41.5037 32.736V26.976H36.3518V24.704H44.4798V34.624C42.7304 35.7547 40.2238 36.32 36.9598 36.32Z" fill="#222222"/>
<rect x="1" y="1" width="48" height="48" stroke="#F59836" stroke-width="2"/>
</svg>
