<svg width="300" height="104" viewBox="0 0 300 104" fill="none" xmlns="http://www.w3.org/2000/svg">
<path d="M19 56.7755H20.4878V51.6878H23.6102C25.8694 51.6878 27.5408 50.0898 27.5408 47.7755C27.5408 45.4429 25.9429 43.9184 23.6102 43.9184H19V56.7755ZM20.4878 50.3653V45.2408H23.4816C25.0245 45.2408 26.0163 46.3061 26.0163 47.7755C26.0163 49.2633 25.0245 50.3653 23.4816 50.3653H20.4878Z" fill="white"/>
<path d="M33.8213 57.0143C36.6866 57.0143 38.8172 54.8653 38.8172 52C38.8172 49.1347 36.7233 46.9857 33.8397 46.9857C30.9927 46.9857 28.8437 49.1163 28.8437 52C28.8437 54.902 30.956 57.0143 33.8213 57.0143ZM33.8213 55.6918C31.7825 55.6918 30.3315 54.149 30.3315 52C30.3315 49.9061 31.7642 48.3082 33.8213 48.3082C35.8784 48.3082 37.3295 49.8878 37.3295 52C37.3295 54.1306 35.8784 55.6918 33.8213 55.6918Z" fill="white"/>
<path d="M42.9853 56.7755H44.8588L47.32 49.0245H47.4302L49.8731 56.7755H51.7465L54.7404 47.2245H53.1608L50.8282 55.1224H50.718L48.2016 47.2245H46.5486L44.0139 55.1224H43.9037L41.5894 47.2245H40.0098L42.9853 56.7755Z" fill="white"/>
<path d="M60.6322 57.0143C62.873 57.0143 64.5444 55.7469 65.0771 53.9653H63.571C63.1301 55.0857 61.9179 55.6918 60.6505 55.6918C58.6852 55.6918 57.4546 54.4245 57.3812 52.5143H65.1689V51.8714C65.1689 49.1163 63.4424 46.9857 60.5403 46.9857C57.9322 46.9857 55.8567 48.951 55.8567 52C55.8567 54.8653 57.7118 57.0143 60.6322 57.0143ZM57.4179 51.2286C57.5648 49.4653 58.9424 48.3082 60.5403 48.3082C62.1567 48.3082 63.4975 49.3184 63.6261 51.2286H57.4179Z" fill="white"/>
<path d="M67.7481 56.7755H69.1991V51.8531C69.1991 50.0347 70.1726 48.6755 71.9175 48.6755H72.7073V47.2245H71.8991C70.5032 47.2245 69.5665 48.198 69.2909 49.0061H69.1807V47.2245H67.7481V56.7755Z" fill="white"/>
<path d="M78.7843 57.0143C81.0251 57.0143 82.6965 55.7469 83.2292 53.9653H81.7231C81.2822 55.0857 80.07 55.6918 78.8026 55.6918C76.8373 55.6918 75.6067 54.4245 75.5333 52.5143H83.321V51.8714C83.321 49.1163 81.5945 46.9857 78.6924 46.9857C76.0843 46.9857 74.0088 48.951 74.0088 52C74.0088 54.8653 75.8639 57.0143 78.7843 57.0143ZM75.57 51.2286C75.7169 49.4653 77.0945 48.3082 78.6924 48.3082C80.3088 48.3082 81.6496 49.3184 81.7782 51.2286H75.57Z" fill="white"/>
<path d="M89.9226 57.0143C91.9981 57.0143 92.99 55.6184 93.2288 55.2694H93.339V56.7755H94.7349V43H93.2839V48.7673H93.1737C92.8798 48.2714 91.8145 46.9857 89.8124 46.9857C87.1124 46.9857 85.1655 49.0796 85.1655 52.0184C85.1655 54.9388 87.1124 57.0143 89.9226 57.0143ZM90.0145 55.7102C88.0124 55.7102 86.6533 54.2592 86.6533 52.0184C86.6533 49.851 88.0124 48.3082 89.9777 48.3082C91.8696 48.3082 93.339 49.6673 93.339 52.0184C93.339 54.0204 92.09 55.7102 90.0145 55.7102Z" fill="white"/>
<path d="M107.824 57.0143C110.634 57.0143 112.581 54.9388 112.581 52.0184C112.581 49.0796 110.634 46.9857 107.934 46.9857C105.932 46.9857 104.867 48.2714 104.573 48.7673H104.463V43H103.012V56.7755H104.408V55.2694H104.518C104.757 55.6184 105.749 57.0143 107.824 57.0143ZM107.732 55.7102C105.657 55.7102 104.408 54.0204 104.408 52.0184C104.408 49.6673 105.877 48.3082 107.769 48.3082C109.734 48.3082 111.094 49.851 111.094 52.0184C111.094 54.2592 109.734 55.7102 107.732 55.7102Z" fill="white"/>
<path d="M114.721 61H115.713C117.274 61 118.027 60.2653 118.523 58.9612L123.078 47.2245H121.443L118.468 55.3061H118.358L115.4 47.2245H113.784L117.66 57.2898L117.219 58.4469C116.907 59.2735 116.374 59.6776 115.437 59.6776H114.721V61Z" fill="white"/>
<g clip-path="url(#clip0)">
<path d="M209.901 50.3428L214.026 44.2355H220.748L214.781 53.0588L220.936 62.2912H214.218L209.901 55.7847V62.2912H204.324V36.4375H209.901V50.3428Z" fill="white"/>
<path d="M279.73 49.8499V62.2863H274.159V49.983C274.159 48.731 273.131 47.7057 271.876 47.7057C270.612 47.7057 269.589 48.731 269.589 49.983V62.2863H264.018V36.4375H269.589V44.8073C270.656 44.0137 271.975 43.5405 273.403 43.5405C276.9 43.5356 279.73 46.36 279.73 49.8499Z" fill="white"/>
<path d="M195.644 44.2362V45.1283C194.133 44.1524 192.33 43.5806 190.394 43.5806C185.039 43.5806 180.697 47.9133 180.697 53.2566C180.697 58.5999 185.039 62.9327 190.399 62.9327C192.335 62.9327 194.133 62.3609 195.649 61.3849V62.3264H201.221V44.2362H195.644V44.2362ZM191.209 57.9689C188.482 57.9689 186.269 55.7606 186.269 53.0397C186.269 50.3188 188.482 48.1105 191.209 48.1105C193.935 48.1105 196.148 50.3188 196.148 53.0397C196.148 55.7606 193.94 57.9689 191.209 57.9689Z" fill="white"/>
<path d="M235.883 44.2362V45.1283C234.371 44.1524 232.568 43.5806 230.632 43.5806C225.277 43.5806 220.936 47.9133 220.936 53.2566C220.936 58.5999 225.277 62.9327 230.632 62.9327C232.568 62.9327 234.366 62.3609 235.883 61.3849V62.3264H241.455V44.2362H235.883V44.2362ZM231.447 57.9689C228.72 57.9689 226.507 55.7606 226.507 53.0397C226.507 50.3188 228.72 48.1105 231.447 48.1105C234.174 48.1105 236.387 50.3188 236.387 53.0397C236.387 55.7606 234.174 57.9689 231.447 57.9689Z" fill="white"/>
<path d="M249.585 56.4462C249.61 56.8159 249.709 57.1314 249.876 57.3828C250.054 57.649 250.286 57.8658 250.563 58.0334C250.864 58.2109 251.215 58.344 251.615 58.4278C252.035 58.5165 252.47 58.5609 252.919 58.5609C253.922 58.5609 254.678 58.4081 255.167 58.1123C255.577 57.8609 255.76 57.5898 255.76 57.2349C255.76 57.0722 255.725 56.9391 255.656 56.8258C255.616 56.7617 255.508 56.6286 255.206 56.461C254.925 56.3033 254.539 56.1554 254.055 56.0174C253.547 55.8744 252.885 55.7216 252.084 55.5738C251.027 55.3618 250.044 55.0956 249.16 54.7752C248.256 54.4499 247.471 54.0457 246.819 53.5774C246.147 53.0894 245.609 52.5176 245.228 51.8768C244.833 51.2114 244.631 50.4424 244.631 49.5848C244.631 48.7665 244.828 47.968 245.218 47.2237C245.609 46.4843 246.167 45.8336 246.883 45.2865C247.585 44.7492 248.449 44.3154 249.447 44.0049C250.435 43.6944 251.561 43.5366 252.791 43.5366C254.07 43.5366 255.241 43.6894 256.268 43.9901C257.311 44.2957 258.21 44.7295 258.946 45.2717C259.696 45.8287 260.279 46.504 260.679 47.273C261.079 48.0469 261.282 48.8996 261.282 49.8066H255.552C255.552 49.2989 255.354 48.8996 254.935 48.5447C254.49 48.175 253.769 47.9926 252.786 47.9926C251.862 47.9926 251.176 48.1454 250.741 48.451C250.361 48.7172 250.188 49.008 250.188 49.3629C250.188 49.5305 250.222 49.6833 250.291 49.8263C250.351 49.9495 250.474 50.0728 250.657 50.1911C250.884 50.3389 251.215 50.4819 251.64 50.61C252.089 50.7481 252.677 50.8713 253.379 50.9699C254.47 51.1473 255.498 51.379 256.431 51.655C257.395 51.9409 258.244 52.3205 258.951 52.774C259.687 53.2521 260.274 53.8387 260.694 54.5238C261.124 55.2287 261.346 56.0716 261.346 57.0229C261.346 57.9053 261.129 58.7285 260.704 59.4728C260.284 60.2072 259.687 60.8431 258.926 61.3705C258.185 61.8831 257.281 62.2873 256.239 62.5683C255.211 62.8443 254.06 62.9873 252.806 62.9873C251.418 62.9873 250.173 62.8 249.096 62.4352C248.019 62.0655 247.096 61.5775 246.36 60.9762C245.609 60.365 245.036 59.6601 244.645 58.8763C244.255 58.0877 244.053 57.2793 244.053 56.4709L249.585 56.4462Z" fill="white"/>
<path d="M168.72 67.5309L174.707 57.1697L162.724 36.4424H150.74L168.72 67.5309Z" fill="white"/>
<path d="M162.729 57.1704L168.715 67.5316H156.737L150.74 57.1704H162.729Z" fill="white"/>
<path d="M144.748 46.8042H156.731L144.753 67.5315L138.756 57.1703L144.748 46.8042Z" fill="white"/>
</g>
<defs>
<clipPath id="clip0">
<rect width="141.474" height="32" fill="white" transform="translate(138.588 36)"/>
</clipPath>
</defs>
</svg>
