<svg width="142" height="158" viewBox="0 0 142 158" fill="none" xmlns="http://www.w3.org/2000/svg">
<rect x="24" y="20.323" width="4" height="3" transform="rotate(-19.3135 24 20.323)" fill="black"/>
<path d="M135.054 56.9085L129.032 55.3321L129.031 55.3342L135.054 56.9085ZM135.072 56.2037L141.095 57.7758C141.492 56.2548 141.299 54.6399 140.555 53.2554L135.072 56.2037ZM134.891 55.6219H128.666C128.666 56.6509 128.921 57.6638 129.409 58.5701L134.891 55.6219ZM134.891 55.5491H141.116C141.116 54.1009 140.612 52.6979 139.689 51.5819L134.891 55.5491ZM134.624 55.371L130.091 59.6372C130.873 60.4682 131.869 61.0683 132.969 61.3718L134.624 55.371ZM89.5893 7.51549L94.1227 3.24931C93.3391 2.4166 92.3412 1.81582 91.2386 1.51287L89.5893 7.51549ZM89.3223 7.26471L94.8053 4.31703C93.999 2.81725 92.6135 1.71322 90.9716 1.26209L89.3223 7.26471ZM89.1672 7.22209L90.8165 1.21947L90.814 1.21879L89.1672 7.22209ZM89.0118 7.17947L87.3625 13.1821L87.365 13.1828L89.0118 7.17947ZM88.7016 7.09422L87.0523 13.0968L87.0523 13.0968L88.7016 7.09422ZM88.5464 7.0516L86.8972 13.0542L88.5464 7.0516ZM88.3913 7.00898L90.0406 1.00636L90.0381 1.00568L88.3913 7.00898ZM88.0376 7.08928L89.7963 13.0608C90.3313 12.9032 90.8427 12.6744 91.3168 12.3806L88.0376 7.08928ZM25.6949 25.4501L23.9362 19.4786C22.3025 19.9598 20.9372 21.0894 20.1585 22.6041C19.3799 24.1189 19.2558 25.8865 19.8154 27.4952L25.6949 25.4501ZM25.5396 25.4073L23.4416 31.2682C23.588 31.3206 23.7364 31.3675 23.8863 31.4088L25.5396 25.4073ZM24.9011 25.9417L28.1823 31.2318C29.5394 30.39 30.5211 29.059 30.9244 27.5138L24.9011 25.9417ZM24.6161 26.3956L18.5934 24.8211L18.5928 24.8234L24.6161 26.3956ZM24.5729 26.5611L18.5496 24.989L18.5496 24.989L24.5729 26.5611ZM24.5297 26.7267L30.5524 28.3009L30.5529 28.2988L24.5297 26.7267ZM7.22189 92.9431L1.19915 91.3689L1.19905 91.3693L7.22189 92.9431ZM7.09207 93.4398L1.06946 91.8651L1.06925 91.8659L7.09207 93.4398ZM7.04881 93.6054L13.0711 95.1815L13.0716 95.1793L7.04881 93.6054ZM7.00554 93.7707L0.983292 92.1946L0.982707 92.1968L7.00554 93.7707ZM7.11745 93.979L5.46222 99.98C7.3356 100.497 9.34281 100.109 10.8889 98.9316C12.435 97.7542 13.3425 95.9224 13.3425 93.979L7.11745 93.979ZM7.22936 94.1872L13.252 95.7619C13.6499 94.2402 13.4569 92.6242 12.712 91.2389L7.22936 94.1872ZM7.34124 94.3953L12.8239 91.447C12.017 89.9465 10.6304 88.8422 8.98726 88.3917L7.34124 94.3953ZM7.56505 94.8117L2.08088 97.7571C2.33866 98.2371 2.65833 98.6812 3.0317 99.0779L7.56505 94.8117ZM52.6001 142.667L48.0667 146.933C49.9093 148.891 52.8009 149.445 55.2365 148.306C57.6722 147.168 59.1015 144.594 58.7807 141.924L52.6001 142.667ZM52.7552 142.71L51.1087 148.713L51.1108 148.714L52.7552 142.71ZM52.9106 142.752L54.5663 136.752L54.555 136.748L52.9106 142.752ZM53.8415 143.008L55.4879 137.005C53.8188 136.547 52.0346 136.805 50.5633 137.716L53.8415 143.008ZM53.9967 143.051L55.6524 137.05L55.643 137.047L53.9967 143.051ZM54.1518 143.093L52.4961 149.094C53.6147 149.403 54.7973 149.393 55.9105 149.065L54.1518 143.093ZM116.495 124.733L118.15 118.732C117.032 118.423 115.849 118.433 114.736 118.761L116.495 124.733ZM116.891 124.487L120.173 129.777C122.132 128.562 123.259 126.364 123.102 124.064L116.891 124.487ZM117.09 124.364L122.783 126.881C123.887 124.385 123.236 121.46 121.177 119.668C119.118 117.876 116.132 117.634 113.812 119.072L117.09 124.364ZM117.288 124.241L120.565 129.534L120.567 129.533L117.288 124.241ZM117.487 124.118L120.765 129.41C122.124 128.568 123.107 127.236 123.51 125.69L117.487 124.118ZM117.53 123.952L111.507 122.38L111.507 122.38L117.53 123.952ZM117.573 123.787L123.597 125.359L123.597 125.359L117.573 123.787ZM117.703 123.29L123.726 124.865L123.726 124.865L117.703 123.29ZM130.357 55.7995L132.111 61.7721C134.19 61.1616 135.801 59.5146 136.366 57.4235C136.931 55.3324 136.369 53.0979 134.881 51.5237L130.357 55.7995ZM103.515 63.6853L97.4712 65.1761C97.878 66.8251 98.9408 68.2363 100.413 69.0826C101.886 69.9288 103.64 70.1367 105.27 69.6579L103.515 63.6853ZM91.403 14.5823L95.9272 10.3065C93.9854 8.25182 90.9029 7.76365 88.4212 9.1178C85.9396 10.4719 84.682 13.3283 85.3591 16.0731L91.403 14.5823ZM87.5627 12.0966L93.6105 10.6214C93.0698 8.4048 91.3598 6.66155 89.154 6.07832C86.9481 5.49509 84.6 6.16533 83.0344 7.82506L87.5627 12.0966ZM100.087 63.4417L98.4377 69.4445C100.565 70.0288 102.842 69.4437 104.424 67.9065C106.007 66.3693 106.657 64.1097 106.134 61.9666L100.087 63.4417ZM51.6733 50.1436L47.145 45.8721C45.6459 47.4613 45.0896 49.7199 45.6792 51.8235C46.2687 53.9271 47.9178 55.5677 50.0245 56.1463L51.6733 50.1436ZM83.0219 12.2669L87.5389 16.5505C89.4744 14.5095 89.8008 11.4242 88.3352 9.02337C86.8696 6.62258 83.9762 5.50285 81.2763 6.29163L83.0219 12.2669ZM48.5828 48.5829L44.0522 52.8521C45.2261 54.0978 46.8612 54.8053 48.5729 54.808C50.2846 54.8107 51.9219 54.1085 53.0998 52.8665L48.5828 48.5829ZM29.1837 27.9957L27.438 22.0204C25.3588 22.6278 23.7448 24.2724 23.1766 26.3627C22.6084 28.4529 23.1676 30.6883 24.6531 32.2648L29.1837 27.9957ZM26.8596 30.5604L31.3902 26.2913C29.8376 24.6436 27.5129 23.9687 25.3194 24.5289C23.1259 25.089 21.4094 26.7958 20.8369 28.9861L26.8596 30.5604ZM46.2587 51.1477L50.7878 55.4183C53.0486 53.0208 53.0492 49.2768 50.7893 46.8786L46.2587 51.1477ZM11.9749 87.5063L5.95217 85.932C5.23285 88.684 6.47035 91.5735 8.95853 92.9517C11.4467 94.33 14.5526 93.8464 16.504 91.7769L11.9749 87.5063ZM47.7355 54.3954L53.7832 52.9203C53.2426 50.7036 51.5326 48.9604 49.3267 48.3771C47.1209 47.7939 44.7728 48.4642 43.2071 50.1239L47.7355 54.3954ZM60.2593 105.74L58.6105 111.743C60.7376 112.327 63.0151 111.742 64.5972 110.205C66.1793 108.668 66.8298 106.408 66.3071 104.265L60.2593 105.74ZM11.8463 92.4422L7.31795 88.1707C5.8189 89.7599 5.2626 92.0185 5.85215 94.1221C6.44171 96.2257 8.09082 97.8663 10.1974 98.4449L11.8463 92.4422ZM53.0317 137.828L48.5074 142.104C50.0613 143.748 52.3848 144.42 54.5763 143.859C56.7679 143.297 58.4823 141.591 59.0544 139.402L53.0317 137.828ZM14.0782 96.6108L15.7271 90.6081C13.0347 89.8685 10.1792 91.0121 8.74162 93.4057C7.30405 95.7993 7.63609 98.8573 9.55391 100.887L14.0782 96.6108ZM60.474 109.355L66.4967 110.929C67.3585 107.632 65.409 104.255 62.1229 103.352L60.474 109.355ZM63.3245 104.798L57.2768 106.274C57.8181 108.493 59.5319 110.238 61.7415 110.819C63.951 111.4 66.3013 110.724 67.8645 109.058L63.3245 104.798ZM50.8007 53.4533L52.4495 47.4505C50.3224 46.8662 48.0449 47.4513 46.4628 48.9885C44.8807 50.5257 44.2302 52.7853 44.7529 54.9284L50.8007 53.4533ZM99.0586 66.7089L103.599 70.968C105.091 69.377 105.642 67.1207 105.05 65.0208C104.459 62.9209 102.811 61.284 100.707 60.7061L99.0586 66.7089ZM56.1337 138.667L50.1109 137.092C49.5439 139.262 50.1873 141.568 51.7952 143.131C53.4032 144.694 55.7272 145.271 57.8794 144.642L56.1337 138.667ZM63.576 110.194L65.2248 104.191C63.6199 103.75 61.9052 103.97 60.4638 104.802C59.0224 105.634 57.9741 107.009 57.5532 108.619L63.576 110.194ZM109.972 122.938L111.718 128.913C114.39 128.132 116.219 125.671 116.197 122.887C116.174 120.103 114.306 117.672 111.621 116.935L109.972 122.938ZM65.5342 107.183L61.0058 102.911C59.5068 104.501 58.9505 106.759 59.5401 108.863C60.1296 110.966 61.7787 112.607 63.8854 113.186L65.5342 107.183ZM101.423 69.1359L107.471 67.6607C106.93 65.444 105.22 63.7008 103.015 63.1176C100.809 62.5344 98.4606 63.2046 96.895 64.8644L101.423 69.1359ZM113.947 120.481L112.299 126.484C114.426 127.068 116.703 126.483 118.285 124.946C119.867 123.409 120.518 121.149 119.995 119.006L113.947 120.481ZM116.24 116.157L110.192 117.631C110.867 120.4 113.338 122.358 116.189 122.381C119.039 122.405 121.542 120.489 122.263 117.731L116.24 116.157ZM104.283 67.0962L102.529 61.1235C99.3386 62.0608 97.4481 65.3397 98.2354 68.5702L104.283 67.0962ZM131.125 59.2104L137.148 60.7846C137.715 58.6137 137.07 56.3054 135.46 54.7429C133.85 53.1803 131.523 52.6053 129.37 53.2377L131.125 59.2104ZM141.076 58.4849C141.225 57.9166 141.292 57.3817 141.309 56.8969C141.325 56.4262 141.291 56.0489 141.272 55.8568C141.267 55.8101 141.262 55.7708 141.26 55.7486C141.259 55.7384 141.257 55.7268 141.257 55.7234C141.256 55.7177 141.256 55.7175 141.257 55.7191C141.257 55.7213 141.259 55.745 141.263 55.779C141.266 55.8137 141.271 55.87 141.276 55.9407C141.284 56.0763 141.295 56.3156 141.278 56.6167C141.26 56.9247 141.213 57.323 141.095 57.7758L129.049 54.6315C128.92 55.1257 128.867 55.5667 128.847 55.9191C128.828 56.2646 128.839 56.5499 128.851 56.7335C128.862 56.912 128.879 57.058 128.884 57.1051C128.885 57.1198 128.887 57.1327 128.888 57.1404C128.889 57.1504 128.889 57.1522 128.89 57.1557C128.89 57.1608 128.889 57.1494 128.887 57.1311C128.879 57.0532 128.854 56.8003 128.866 56.4669C128.878 56.1195 128.926 55.7347 129.032 55.3321L141.076 58.4849ZM140.555 53.2554C140.779 53.6724 140.919 54.0618 141.007 54.3777C141.049 54.5253 141.075 54.644 141.089 54.7136C141.102 54.7737 141.111 54.8221 141.104 54.7873C141.102 54.7753 141.085 54.6802 141.063 54.5732C141.038 54.4565 141.001 54.2904 140.946 54.0948C140.831 53.6828 140.654 53.1946 140.374 52.6737L129.409 58.5701C129.185 58.1532 129.044 57.7638 128.956 57.4478C128.915 57.3003 128.888 57.1815 128.874 57.1119C128.861 57.0519 128.853 57.0035 128.859 57.0382C128.861 57.0502 128.879 57.1453 128.901 57.2524C128.925 57.369 128.963 57.5351 129.017 57.7307C129.132 58.1428 129.309 58.6309 129.589 59.1519L140.555 53.2554ZM141.116 55.6219V55.5491H128.666V55.6219H141.116ZM134.891 55.5491C139.689 51.5819 139.688 51.5806 139.687 51.5794C139.686 51.579 139.685 51.5778 139.684 51.5769C139.683 51.5753 139.682 51.5736 139.68 51.572C139.678 51.5686 139.675 51.5653 139.672 51.5619C139.666 51.5552 139.661 51.5484 139.655 51.5415C139.643 51.5277 139.631 51.5135 139.619 51.499C139.594 51.47 139.567 51.4395 139.539 51.4077C139.483 51.3444 139.419 51.2745 139.346 51.1998C139.205 51.0536 139.017 50.8723 138.784 50.6793C138.382 50.347 137.532 49.7156 136.28 49.3701L132.969 61.3718C131.872 61.0692 131.155 60.5268 130.848 60.2729C130.662 60.119 130.512 59.9742 130.397 59.8548C130.337 59.7934 130.283 59.7344 130.233 59.6787C130.209 59.6507 130.185 59.6231 130.161 59.5962C130.15 59.5826 130.139 59.5692 130.127 59.5559C130.122 59.5493 130.116 59.5427 130.111 59.5361C130.108 59.5328 130.105 59.5295 130.102 59.5262C130.101 59.5245 130.1 59.5229 130.098 59.5212C130.098 59.5204 130.097 59.5192 130.096 59.5188C130.095 59.5175 130.094 59.5163 134.891 55.5491ZM139.158 51.1048L94.1227 3.24931L85.056 11.7817L130.091 59.6372L139.158 51.1048ZM91.2386 1.51287C92.2389 1.78772 92.942 2.25854 93.3399 2.57269C93.7509 2.8972 94.0328 3.2107 94.1979 3.41064C94.3718 3.62129 94.4994 3.80791 94.5855 3.94236C94.631 4.01344 94.6713 4.08013 94.7069 4.14116C94.7248 4.17193 94.7419 4.20195 94.7582 4.23111C94.7663 4.24571 94.7743 4.26017 94.7822 4.27447C94.7861 4.28163 94.79 4.28875 94.7938 4.29584C94.7957 4.29938 94.7976 4.30292 94.7996 4.30645C94.8005 4.30822 94.8015 4.30998 94.8024 4.31174C94.8029 4.31262 94.8036 4.31395 94.8038 4.31439C94.8045 4.31571 94.8053 4.31703 89.3223 7.26471C83.8394 10.2124 83.8401 10.2137 83.8408 10.215C83.841 10.2155 83.8417 10.2168 83.8422 10.2177C83.8432 10.2195 83.8441 10.2212 83.8451 10.223C83.847 10.2266 83.849 10.2302 83.851 10.2339C83.8549 10.2412 83.859 10.2486 83.8631 10.2561C83.8714 10.2712 83.88 10.2869 83.889 10.303C83.907 10.3352 83.9267 10.3698 83.948 10.4063C83.9902 10.4789 84.0405 10.5622 84.0989 10.6534C84.2108 10.8282 84.3761 11.0696 84.5974 11.3376C84.8626 11.6588 85.9567 12.9732 87.9401 13.5181L91.2386 1.51287ZM90.9716 1.26209L90.8165 1.21947L87.5179 13.2247L87.673 13.2673L90.9716 1.26209ZM90.814 1.21879L90.6586 1.17616L87.365 13.1828L87.5204 13.2254L90.814 1.21879ZM90.6611 1.17685C90.5835 1.15554 90.5448 1.14488 90.506 1.13423C90.4672 1.12357 90.4284 1.11292 90.3508 1.0916L87.0523 13.0968C87.1298 13.1182 87.1686 13.1288 87.2074 13.1395C87.2462 13.1501 87.285 13.1608 87.3625 13.1821L90.6611 1.17685ZM90.3509 1.0916L90.1957 1.04898L86.8972 13.0542L87.0523 13.0968L90.3509 1.0916ZM90.1957 1.04898L90.0406 1.00636L86.742 13.0116L86.8972 13.0542L90.1957 1.04898ZM90.0381 1.00568C88.0392 0.457334 86.4187 1.03929 86.0058 1.19128C85.6727 1.3139 85.403 1.4424 85.2144 1.53979C85.116 1.59062 85.0288 1.63862 84.9542 1.68134C84.9166 1.70285 84.8815 1.72342 84.849 1.74282C84.8327 1.75253 84.8171 1.76199 84.802 1.77117C84.7944 1.77576 84.787 1.78029 84.7798 1.78474C84.7762 1.78697 84.7726 1.78918 84.769 1.79138C84.7672 1.79247 84.7655 1.79357 84.7637 1.79466C84.7628 1.7952 84.7615 1.79601 84.7611 1.79628C84.7597 1.7971 84.7584 1.79791 88.0376 7.08928C91.3168 12.3806 91.3155 12.3815 91.3142 12.3823C91.3137 12.3825 91.3124 12.3833 91.3116 12.3839C91.3098 12.385 91.3081 12.3861 91.3063 12.3871C91.3028 12.3893 91.2993 12.3915 91.2957 12.3936C91.2887 12.398 91.2816 12.4023 91.2744 12.4067C91.2601 12.4154 91.2455 12.4242 91.2307 12.433C91.2012 12.4506 91.1705 12.4686 91.1387 12.4868C91.0755 12.523 91.005 12.5617 90.9276 12.6017C90.7811 12.6774 90.5707 12.7778 90.3066 12.875C90.0553 12.9675 89.644 13.0987 89.1138 13.1712C88.5972 13.2419 87.7471 13.2873 86.7445 13.0123L90.0381 1.00568ZM86.2789 1.1178L23.9362 19.4786L27.4536 31.4216L89.7963 13.0608L86.2789 1.1178ZM25.6949 25.4501C19.8154 27.4952 21.1424 21.2044 27.3254 19.4423C27.3282 19.4431 27.334 19.4447 27.3368 19.4455C27.3398 19.4463 27.3421 19.4469 27.3425 19.447C27.344 19.4474 27.3452 19.4478 27.3454 19.4478C27.3461 19.448 27.3467 19.4482 27.3468 19.4482C27.3472 19.4483 27.3475 19.4484 27.3475 19.4484C27.3476 19.4484 27.3477 19.4485 27.3476 19.4484C27.3474 19.4484 27.3468 19.4482 27.3456 19.4479C27.3433 19.4472 27.3384 19.4459 27.3287 19.4432C27.3093 19.4379 27.2705 19.4272 27.1928 19.4058L23.8863 31.4088C23.964 31.4302 24.0029 31.4409 24.0223 31.4463C24.032 31.449 24.0369 31.4503 24.0394 31.451C24.0406 31.4513 24.0413 31.4515 24.0417 31.4516C24.0419 31.4517 24.0421 31.4518 24.0423 31.4518C24.0424 31.4518 24.0427 31.4519 24.0431 31.452C24.0432 31.452 24.0437 31.4522 24.0445 31.4524C24.0447 31.4525 24.0459 31.4528 24.0473 31.4532C24.0478 31.4533 24.0501 31.454 24.0531 31.4548C24.0559 31.4555 24.0616 31.4571 24.0645 31.4579C30.2475 29.6958 31.5745 23.405 25.6949 25.4501ZM25.5396 25.4073C27.6362 19.5459 24.8967 19.2155 22.2835 20.1017C22.2804 20.1036 22.2741 20.1075 22.2709 20.1094C22.2677 20.1115 22.2651 20.113 22.2646 20.1133C22.263 20.1143 22.2617 20.1151 22.2614 20.1153C22.2606 20.1158 22.26 20.1162 22.2599 20.1163C22.2594 20.1165 22.2591 20.1167 22.259 20.1168C22.2588 20.1169 22.2585 20.1171 22.2583 20.1172C22.2578 20.1176 22.2569 20.1181 22.2554 20.1191C22.2522 20.121 22.246 20.1249 22.2336 20.1326C22.2088 20.148 22.1592 20.1787 22.06 20.2402L28.6225 30.8204C28.7216 30.7589 28.7712 30.7282 28.796 30.7128C28.8083 30.7051 28.8145 30.7013 28.8175 30.6994C28.8191 30.6985 28.8198 30.698 28.8201 30.6979C28.8202 30.6978 28.8202 30.6978 28.82 30.6979C28.82 30.6979 28.8197 30.6981 28.8193 30.6984C28.8191 30.6984 28.8185 30.6988 28.8177 30.6993C28.8174 30.6995 28.8162 30.7003 28.8145 30.7013C28.814 30.7016 28.8115 30.7032 28.8082 30.7052C28.805 30.7071 28.7987 30.711 28.7956 30.713C26.1824 31.5991 23.4429 31.2687 25.5396 25.4073ZM22.06 20.2402C22.06 20.2403 21.5538 20.5397 21.0697 20.9446C20.6239 21.3174 19.3855 22.4247 18.8778 24.3695L30.9244 27.5138C30.46 29.2931 29.3424 30.2563 29.0563 30.4955C28.7318 30.7668 28.4242 30.9434 28.6225 30.8204L22.06 20.2402ZM21.6199 20.6516C19.1527 22.1819 18.6448 24.6244 18.5934 24.8211L30.6388 27.97C30.6878 27.7823 30.5528 28.4041 30.2001 29.0691C29.7525 29.9132 29.0687 30.682 28.1823 31.2318L21.6199 20.6516ZM18.5928 24.8234L18.5496 24.989L30.5961 28.1333L30.6394 27.9677L18.5928 24.8234ZM18.5496 24.989L18.5064 25.1546L30.5529 28.2988L30.5962 28.1333L18.5496 24.989ZM18.5069 25.1525L1.19915 91.3689L13.2446 94.5174L30.5524 28.3009L18.5069 25.1525ZM1.19905 91.3693C1.15576 91.5349 1.11262 91.7001 1.06946 91.8651L13.1147 95.0145C13.1581 94.8484 13.2015 94.6824 13.2447 94.517L1.19905 91.3693ZM1.06925 91.8659L1.02599 92.0315L13.0716 95.1793L13.1149 95.0137L1.06925 91.8659ZM1.02656 92.0293L0.983292 92.1946L13.0278 95.3468L13.0711 95.1815L1.02656 92.0293ZM7.00554 93.7707C0.982707 92.1968 0.981983 92.1996 0.98126 92.2024C0.981019 92.2033 0.980295 92.2061 0.979813 92.208C0.978847 92.2117 0.97788 92.2154 0.976913 92.2192C0.974978 92.2267 0.973039 92.2343 0.971097 92.242C0.967214 92.2573 0.963316 92.2729 0.959412 92.2888C0.951608 92.3207 0.943753 92.3538 0.935916 92.3881C0.920284 92.4567 0.904506 92.5311 0.889271 92.6109C0.859178 92.7686 0.829187 92.9579 0.8075 93.1731C0.767164 93.5734 0.73954 94.2147 0.880544 94.9828C1.02445 95.7667 1.37825 96.854 2.232 97.8892C3.13088 98.9791 4.29465 99.658 5.46222 99.98L8.77269 87.9781C9.86267 88.2787 10.9737 88.9208 11.837 89.9677C12.6552 90.9598 12.9907 91.9977 13.1261 92.7348C13.2585 93.4562 13.232 94.0534 13.1949 94.4213C13.1749 94.6204 13.147 94.7964 13.1187 94.9448C13.1044 95.0201 13.0894 95.0909 13.0743 95.157C13.0667 95.1901 13.0591 95.2223 13.0514 95.2535C13.0476 95.2691 13.0438 95.2845 13.0399 95.2997C13.038 95.3072 13.0361 95.3148 13.0342 95.3222C13.0332 95.326 13.0322 95.3297 13.0313 95.3334C13.0308 95.3353 13.0301 95.3381 13.0298 95.339C13.0291 95.3418 13.0284 95.3445 7.00554 93.7707ZM7.11745 93.979C13.3425 93.979 8.65435 100.011 1.65126 96.9577C1.64917 96.9538 1.64501 96.9462 1.64294 96.9424C1.64081 96.9384 1.63914 96.9353 1.63884 96.9348C1.63778 96.9328 1.63695 96.9313 1.6368 96.931C1.63627 96.93 1.63585 96.9292 1.63578 96.9291C1.63552 96.9286 1.63532 96.9283 1.6353 96.9282C1.63519 96.928 1.63514 96.9279 1.63523 96.9281C1.63539 96.9284 1.63577 96.9291 1.63664 96.9307C1.63835 96.9339 1.64182 96.9403 1.64881 96.9533C1.66278 96.9793 1.69075 97.0313 1.7467 97.1354L12.712 91.2389C12.6561 91.1349 12.6281 91.0828 12.6141 91.0568C12.6071 91.0438 12.6035 91.0372 12.6018 91.0339C12.6009 91.0323 12.6004 91.0313 12.6001 91.0308C12.6 91.0306 12.5998 91.0303 12.5997 91.03C12.5996 91.0299 12.5994 91.0295 12.5991 91.029C12.5991 91.0289 12.5986 91.0281 12.5981 91.0271C12.598 91.0268 12.5971 91.0253 12.5961 91.0233C12.5958 91.0228 12.5941 91.0197 12.592 91.0157C12.5899 91.0119 12.5857 91.0042 12.5836 91.0004C5.58056 87.9467 0.892376 93.979 7.11745 93.979ZM7.22936 94.1872C1.20675 92.6124 1.20603 92.6152 1.2053 92.618C1.20506 92.6189 1.20434 92.6217 1.20386 92.6235C1.20289 92.6273 1.20192 92.631 1.20096 92.6348C1.19902 92.6423 1.19708 92.6499 1.19514 92.6575C1.19126 92.6728 1.18736 92.6885 1.18345 92.7044C1.17565 92.7362 1.16779 92.7693 1.15995 92.8036C1.14431 92.8722 1.12852 92.9466 1.11328 93.0264C1.08317 93.184 1.05314 93.3733 1.03142 93.5885C0.991021 93.9887 0.963222 94.6304 1.10434 95.3992C1.24837 96.1838 1.60278 97.2729 2.45882 98.3092C3.36019 99.4005 4.52662 100.078 5.69522 100.399L8.98726 88.3917C10.0783 88.6909 11.1919 89.3321 12.0578 90.3804C12.8783 91.3737 13.2144 92.4134 13.3499 93.1513C13.4824 93.8734 13.4558 94.471 13.4186 94.8389C13.3985 95.0379 13.3707 95.2139 13.3423 95.3623C13.328 95.4375 13.313 95.5083 13.2979 95.5744C13.2903 95.6075 13.2827 95.6397 13.275 95.6709C13.2712 95.6865 13.2674 95.7019 13.2635 95.717C13.2616 95.7246 13.2597 95.7321 13.2577 95.7396C13.2568 95.7433 13.2558 95.7471 13.2549 95.7508C13.2544 95.7526 13.2537 95.7554 13.2534 95.7563C13.2527 95.7591 13.252 95.7619 7.22936 94.1872ZM1.85858 97.3435C1.96994 97.5506 1.96944 97.5496 2.08088 97.7571L13.0492 91.8663C12.9369 91.6571 12.9364 91.6562 12.8239 91.447L1.85858 97.3435ZM3.0317 99.0779L48.0667 146.933L57.1334 138.401L12.0984 90.5456L3.0317 99.0779ZM52.6001 142.667C58.7807 141.925 56.7197 147.334 51.0966 148.708C51.0785 148.704 51.0424 148.694 51.0245 148.69C51.0059 148.685 50.9914 148.681 50.9888 148.68C50.9795 148.678 50.9723 148.676 50.971 148.675C50.9664 148.674 50.9628 148.673 50.9621 148.673C50.9598 148.672 50.9581 148.672 50.9577 148.672C50.9566 148.671 50.9558 148.671 50.9558 148.671C50.9555 148.671 50.9557 148.671 50.9568 148.672C50.9589 148.672 50.9636 148.673 50.9732 148.676C50.9925 148.681 51.0311 148.692 51.1087 148.713L54.4017 136.706C54.3241 136.685 54.2852 136.674 54.2657 136.669C54.256 136.666 54.2509 136.665 54.2482 136.664C54.2469 136.664 54.2458 136.664 54.245 136.663C54.2446 136.663 54.2437 136.663 54.2425 136.663C54.2421 136.663 54.2403 136.662 54.238 136.662C54.2374 136.661 54.2337 136.66 54.2291 136.659C54.2278 136.659 54.2206 136.657 54.2114 136.654C54.2088 136.654 54.1942 136.65 54.1757 136.645C54.1577 136.64 54.1216 136.631 54.1036 136.626C48.4805 138 46.4194 143.409 52.6001 142.667ZM51.1108 148.714L51.2661 148.756L54.555 136.748L54.3996 136.706L51.1108 148.714ZM51.2548 148.753C50.743 148.612 50.3224 148.423 50.0005 148.248C49.682 148.076 49.4365 147.905 49.2717 147.78C49.1075 147.656 48.9873 147.551 48.9286 147.499C48.8751 147.451 48.8328 147.411 48.8601 147.437C48.8666 147.443 48.9425 147.515 49.0303 147.593C49.1231 147.676 49.278 147.81 49.4776 147.96C49.6778 148.111 49.9596 148.306 50.3156 148.499C50.6751 148.693 51.1343 148.898 51.6862 149.049L54.9792 137.042C55.4924 137.183 55.9141 137.372 56.2372 137.547C56.5568 137.72 56.8032 137.891 56.9686 138.016C57.1335 138.14 57.2543 138.245 57.3135 138.298C57.3675 138.346 57.41 138.387 57.3831 138.361C57.3771 138.356 57.3014 138.284 57.2142 138.206C57.1218 138.124 56.9675 137.99 56.7686 137.84C56.5691 137.69 56.2882 137.495 55.9333 137.303C55.5749 137.108 55.1169 136.903 54.5663 136.752L51.2548 148.753ZM51.6862 149.049C51.6898 149.05 51.9273 149.118 52.2019 149.174C52.5054 149.236 52.9636 149.31 53.5227 149.314C54.7858 149.324 56.0266 148.977 57.1198 148.3L50.5633 137.716C51.4579 137.162 52.5218 136.856 53.619 136.864C54.4808 136.871 55.18 137.097 54.9792 137.042L51.6862 149.049ZM52.1952 149.012L52.3503 149.054L55.643 137.047L55.4879 137.005L52.1952 149.012ZM52.3409 149.052L52.4961 149.094L55.8075 137.093L55.6524 137.05L52.3409 149.052ZM55.9105 149.065L118.253 130.704L114.736 118.761L52.3931 137.122L55.9105 149.065ZM114.839 130.733C116.073 131.074 117.495 131.066 118.878 130.52C120.03 130.066 120.754 129.382 120.929 129.219C120.991 129.16 121.041 129.111 121.07 129.083C121.097 129.056 121.123 129.03 121.123 129.03C121.139 129.014 121.088 129.065 121.02 129.129C120.865 129.275 120.577 129.526 120.173 129.777L113.61 119.197C113.106 119.509 112.739 119.827 112.515 120.037C112.412 120.133 112.33 120.216 112.316 120.23C112.276 120.27 112.345 120.2 112.425 120.125C112.544 120.013 113.216 119.37 114.31 118.939C115.636 118.416 116.994 118.413 118.15 118.732L114.839 130.733ZM116.891 124.487C123.102 124.064 122.458 127.273 120.276 129.712C120.263 129.72 120.236 129.737 120.223 129.745C120.209 129.754 120.198 129.761 120.196 129.762C120.189 129.766 120.184 129.77 120.183 129.771C120.179 129.773 120.177 129.774 120.176 129.775C120.174 129.776 120.173 129.777 120.173 129.777C120.172 129.777 120.172 129.777 120.172 129.777C120.172 129.778 120.172 129.778 120.171 129.778C120.171 129.778 120.172 129.777 120.173 129.776C120.176 129.775 120.182 129.771 120.195 129.763C120.219 129.748 120.269 129.717 120.368 129.656L113.812 119.072C113.712 119.133 113.663 119.164 113.638 119.18C113.625 119.187 113.619 119.191 113.616 119.193C113.614 119.194 113.613 119.195 113.612 119.196C113.612 119.196 113.611 119.196 113.61 119.197C113.61 119.197 113.608 119.198 113.607 119.199C113.606 119.199 113.603 119.201 113.6 119.203C113.599 119.204 113.593 119.207 113.586 119.211C113.584 119.213 113.574 119.22 113.56 119.228C113.547 119.237 113.52 119.254 113.507 119.262C111.325 121.701 110.681 124.909 116.891 124.487ZM117.09 124.364C111.396 121.848 112.966 129.027 120.283 129.708C120.294 129.701 120.315 129.689 120.325 129.682C120.336 129.676 120.344 129.67 120.346 129.669C120.351 129.666 120.355 129.664 120.356 129.663C120.359 129.662 120.361 129.66 120.361 129.66C120.363 129.659 120.364 129.659 120.364 129.658C120.365 129.658 120.365 129.658 120.366 129.657C120.366 129.657 120.367 129.656 120.369 129.655C120.372 129.653 120.378 129.649 120.391 129.642C120.416 129.626 120.465 129.596 120.565 129.534L114.012 118.948C113.913 119.009 113.863 119.04 113.839 119.055C113.826 119.063 113.82 119.067 113.817 119.068C113.817 119.069 113.816 119.069 113.816 119.069C113.816 119.07 113.815 119.07 113.815 119.07C113.815 119.07 113.815 119.07 113.815 119.07C113.815 119.07 113.815 119.07 113.815 119.07C113.815 119.07 113.816 119.069 113.816 119.069C113.816 119.069 113.817 119.068 113.819 119.068C113.819 119.067 113.821 119.066 113.824 119.064C113.824 119.064 113.829 119.061 113.834 119.058C113.835 119.057 113.844 119.052 113.855 119.045C113.865 119.039 113.886 119.026 113.897 119.02C121.214 119.701 122.784 126.88 117.09 124.364ZM120.567 129.533L120.765 129.41L114.209 118.826L114.01 118.949L120.567 129.533ZM123.51 125.69L123.553 125.525L111.507 122.38L111.464 122.546L123.51 125.69ZM123.553 125.525L123.597 125.359L111.55 122.214L111.507 122.38L123.553 125.525ZM123.597 125.359C123.64 125.191 123.68 125.042 123.726 124.865L111.681 121.716C111.64 121.87 111.593 122.051 111.55 122.215L123.597 125.359ZM123.726 124.865L141.077 58.4827L129.031 55.3342L111.68 121.716L123.726 124.865ZM128.602 49.8268L101.76 57.7126L105.27 69.6579L132.111 61.7721L128.602 49.8268ZM109.559 62.1944L97.4469 13.0914L85.3591 16.0731L97.4712 65.1761L109.559 62.1944ZM86.8787 18.8581L125.832 60.0753L134.881 51.5237L95.9272 10.3065L86.8787 18.8581ZM81.5149 13.5717L94.0388 64.9169L106.134 61.9666L93.6105 10.6214L81.5149 13.5717ZM101.735 57.439L53.3221 44.1409L50.0245 56.1463L98.4377 69.4445L101.735 57.439ZM56.2016 54.4151L92.091 16.3681L83.0344 7.82506L47.145 45.8721L56.2016 54.4151ZM78.505 7.98341L44.0658 44.2994L53.0998 52.8665L87.5389 16.5505L78.505 7.98341ZM53.1134 44.3138L33.7143 23.7266L24.6531 32.2648L44.0522 52.8521L53.1134 44.3138ZM30.9294 33.971L84.7676 18.2422L81.2763 6.29163L27.438 22.0204L30.9294 33.971ZM22.329 34.8295L41.7281 55.4168L50.7893 46.8786L31.3902 26.2913L22.329 34.8295ZM41.7296 46.877L7.44578 83.2356L16.504 91.7769L50.7878 55.4183L41.7296 46.877ZM17.9976 89.0805L32.8823 32.1346L20.8369 28.9861L5.95217 85.932L17.9976 89.0805ZM41.6877 55.8706L54.2115 107.215L66.3071 104.265L53.7832 52.9203L41.6877 55.8706ZM61.9081 99.7376L13.4951 86.4395L10.1974 98.4449L58.6105 111.743L61.9081 99.7376ZM16.3746 96.7137L52.2638 58.6669L43.2071 50.1239L7.31795 88.1707L16.3746 96.7137ZM57.556 133.552L18.6025 92.335L9.55391 100.887L48.5074 142.104L57.556 133.552ZM12.4293 102.614L58.8251 115.358L62.1229 103.352L15.7271 90.6081L12.4293 102.614ZM54.4513 107.781L47.009 136.254L59.0544 139.402L66.4967 110.929L54.4513 107.781ZM69.3723 103.323L56.8485 51.9781L44.7529 54.9284L57.2768 106.274L69.3723 103.323ZM49.1518 59.456L97.4097 72.7116L100.707 60.7061L52.4495 47.4505L49.1518 59.456ZM94.5186 62.4497L58.7846 100.539L67.8645 109.058L103.599 70.968L94.5186 62.4497ZM62.1564 140.241L69.5987 111.768L57.5532 108.619L50.1109 137.092L62.1564 140.241ZM61.9272 116.196L108.323 128.94L111.621 116.935L65.2248 104.191L61.9272 116.196ZM108.226 116.962L54.388 132.691L57.8794 144.642L111.718 128.913L108.226 116.962ZM70.0625 111.454L105.952 73.4074L96.895 64.8644L61.0058 102.911L70.0625 111.454ZM95.3756 70.611L107.9 121.956L119.995 119.006L107.471 67.6607L95.3756 70.611ZM115.596 114.478L67.183 101.18L63.8854 113.186L112.299 126.484L115.596 114.478ZM122.288 114.683L110.332 65.6222L98.2354 68.5702L110.192 117.631L122.288 114.683ZM106.038 73.0688L132.88 65.183L129.37 53.2377L102.529 61.1235L106.038 73.0688ZM125.102 57.6362L110.218 114.582L122.263 117.731L137.148 60.7846L125.102 57.6362Z" fill="black"/>
</svg>
